HIERARCHY
ROOT hip
{
	OFFSET 0.000000 0.000000 0.000000 
	CHANNELS 6 Xposition Yposition Zposition Xrotation Zrotation Yrotation
	JOINT abdomen
	{
		OFFSET 0.000000 3.402643 0.000000 
		CHANNELS 3 Xrotation Zrotation Yrotation
		JOINT chest
		{
			OFFSET 0.000000 8.438565 -0.680529 
			CHANNELS 3 Xrotation Zrotation Yrotation
			JOINT neck
			{
				OFFSET 0.000000 10.207942 -0.272212 
				CHANNELS 3 Xrotation Zrotation Yrotation
				JOINT head
				{
					OFFSET 0.000000 3.130431 0.000000 
					CHANNELS 3 Xrotation Zrotation Yrotation
					End Site
					{
						OFFSET 0.000000 3.130435 0.000000 
					}
				}
			}
			JOINT lCollar
			{
				OFFSET 3.470700 6.669187 -0.816635 
				CHANNELS 3 Yrotation Zrotation Xrotation
				JOINT lShldr
				{
					OFFSET 3.198488 0.000000 0.000000 
					CHANNELS 3 Zrotation Yrotation Xrotation
					JOINT lForeArm
					{
						OFFSET 10.139888 0.000000 0.000000 
						CHANNELS 3 Yrotation Zrotation Xrotation
						JOINT lHand
						{
							OFFSET 8.370511 0.000000 0.000000 
							CHANNELS 3 Zrotation Yrotation Xrotation
							End Site
							{
								OFFSET 4.083176 0.000000 0.000000 
							}
						}
					}
				}
			}
			JOINT rCollar
			{
				OFFSET -3.470700 6.669187 -0.816635 
				CHANNELS 3 Yrotation Zrotation Xrotation
				JOINT rShldr
				{
					OFFSET -3.198488 0.000000 0.000000 
					CHANNELS 3 Zrotation Yrotation Xrotation
					JOINT rForeArm
					{
						OFFSET -10.139888 0.000000 0.000000 
						CHANNELS 3 Yrotation Zrotation Xrotation
						JOINT rHand
						{
							OFFSET -8.370511 0.000000 0.000000 
							CHANNELS 3 Zrotation Yrotation Xrotation
							End Site
							{
								OFFSET -4.083176 0.000000 0.000000 
							}
						}
					}
				}
			}
		}
	}
	JOINT lThigh
	{
		OFFSET 5.308129 -1.633274 1.361059 
		CHANNELS 3 Xrotation Zrotation Yrotation
		JOINT lShin
		{
			OFFSET -2.041588 -20.007561 0.000000 
			CHANNELS 3 Xrotation Zrotation Yrotation
			JOINT lFoot
			{
				OFFSET 0.000000 -19.190928 -1.224953 
				CHANNELS 3 Xrotation Yrotation Zrotation
				End Site
				{
					OFFSET 0.000000 -2.449906 4.627600 
				}
			}
		}
	}
	JOINT rThigh
	{
		OFFSET -5.308129 -1.633274 1.361059 
		CHANNELS 3 Xrotation Zrotation Yrotation
		JOINT rShin
		{
			OFFSET 2.041588 -20.007561 0.000000 
			CHANNELS 3 Xrotation Zrotation Yrotation
			JOINT rFoot
			{
				OFFSET 0.000000 -19.190928 -1.224953 
				CHANNELS 3 Xrotation Yrotation Zrotation
				End Site
				{
					OFFSET 0.000000 -2.449906 4.627600 
				}
			}
		}
	}
}
MOTION
Frames: 15
Frame Time: 0.033333
-58.933983 42.226482 51.845245 11.621094 14.638673 -45.856907 29.822811 -7.874106 -5.629282 -29.365234 9.599609 0.978191 51.063168 8.107644 2.471410 -63.457035 -9.843749 -7.255858 2.000000 -2.000000 0.000000 -86.406250 12.031249 3.652344 -49.179588 -1.999987 -1.972400 12.000309 62.128883 10.662114 -2.000000 2.000000 0.000000 90.732422 -10.498048 3.318533 53.186314 1.624323 -2.073158 -12.305591 -57.717285 5.660185 -58.481049 -0.635440 8.419737 73.119240 -1.842926 -4.966422 -20.427994 21.166903 -4.619643 5.276717 -9.036499 -21.127411 49.419250 2.613652 3.569901 14.150753 -24.571083 30.854317 
-58.479095 41.229805 51.131264 11.259766 14.482422 -45.798336 29.822811 -7.874106 -5.629282 -29.365234 9.599609 0.978191 51.063168 8.107644 2.471410 -62.929688 -9.912108 -7.353517 2.000000 -2.000000 0.000000 -86.113281 12.294922 4.111328 -49.173779 -1.881209 -2.116569 12.385633 62.075272 11.065811 -2.000000 2.000000 0.000000 90.644531 -10.654298 3.025539 52.998631 1.463220 -1.994521 -11.975510 -57.771706 5.295226 -60.787025 -0.293135 8.472316 75.731728 -1.794327 -4.982805 -21.233580 21.358894 -4.638335 3.847536 -8.750171 -19.792624 53.838558 2.697490 3.820094 10.190739 -26.088827 31.527689 
-58.119446 40.288086 50.432098 10.878907 14.160157 -45.993710 29.822811 -7.874106 -5.629282 -29.365234 9.599609 0.978191 51.063168 8.107644 2.471410 -62.558598 -9.775389 -7.451174 2.000000 -2.000000 0.000000 -86.171875 12.451172 4.132966 -48.826923 -1.889902 -1.929946 13.029875 62.191490 11.809272 -2.000000 2.000000 0.000000 90.322266 -10.546875 2.412109 52.998631 1.463220 -1.994521 -11.423635 -57.843117 4.680564 -62.728451 0.077356 8.653208 78.367622 -1.579880 -5.048982 -21.959215 21.985973 -4.087377 2.604023 -8.020949 -19.316347 56.633953 2.653115 4.040936 10.218458 -28.716051 32.774391 
-57.843918 39.517628 49.778534 10.498048 13.828126 -45.964466 29.822811 -7.874106 -5.629282 -29.365234 9.599609 0.978191 51.063168 8.107644 2.471410 -62.187500 -9.658202 -7.530935 2.000000 -2.000000 0.000000 -86.191406 12.421876 4.150391 -48.475899 -2.018347 -1.951768 14.095163 62.607597 13.086248 -2.000000 2.000000 0.000000 90.302734 -10.380859 2.254100 52.998631 1.463220 -1.994521 -11.254269 -58.085323 4.645166 -64.182220 0.448483 8.318515 80.289185 -1.404396 -5.108146 -21.885277 21.842392 -4.260405 1.734932 -7.298544 -18.681694 58.738945 2.497170 4.121208 10.375403 -31.204983 34.273899 
-57.628799 38.810375 49.145439 10.097656 13.486329 -45.937500 29.822811 -7.874106 -5.629282 -29.365234 9.599609 0.978191 51.063168 8.107644 2.471410 -61.826168 -9.697266 -7.433286 2.000000 -2.000000 0.000000 -86.083984 12.509766 4.386881 -48.299831 -2.027527 -1.941453 14.663424 62.548004 13.810516 -2.000000 2.000000 0.000000 90.351563 -10.498048 2.392578 52.822849 1.463220 -1.994521 -11.499101 -57.941696 5.382589 -65.614044 0.791099 8.316864 82.045815 -1.250122 -5.127471 -21.447369 21.892752 -4.577494 0.778646 -6.574816 -17.882225 60.680931 2.478058 3.798083 11.453964 -33.002251 35.977364 
-57.417953 38.129002 48.521488 9.570313 13.153942 -45.945866 29.822811 -7.874106 -5.629282 -29.365234 9.599609 0.978191 51.063168 8.107644 2.471410 -61.455078 -9.560546 -7.521154 2.000000 -2.000000 0.000000 -86.337891 12.871095 4.513896 -48.299854 -2.017778 -1.942023 14.699551 62.529037 13.555636 -2.000000 2.000000 0.000000 90.791016 -10.859375 2.597656 52.834019 1.583621 -2.046190 -11.497855 -57.970993 5.568136 -66.849815 1.161252 8.273819 83.615662 -1.131995 -5.186903 -21.180882 21.789139 -4.300765 0.213772 -5.914683 -17.834887 62.417690 2.185114 4.248411 11.541176 -35.071075 36.444794 
-57.241390 37.502701 47.927746 9.179688 12.841798 -45.915798 29.822811 -7.874106 -5.629282 -29.365234 9.599609 0.978191 51.063168 8.107644 2.471410 -61.083988 -9.433594 -7.431642 2.000000 -2.000000 0.000000 -86.406250 13.222656 4.833984 -48.475899 -2.018347 -1.951768 14.975826 62.318481 14.136450 -2.000000 2.000000 0.000000 90.839844 -10.957031 3.105469 52.658142 1.642116 -2.042788 -11.398958 -58.008884 5.618630 -67.966675 1.718969 7.766114 84.890274 -1.181691 -5.164957 -20.841215 21.564880 -4.369422 -0.244791 -5.192875 -17.424704 64.176689 2.048695 4.330791 11.951505 -37.037586 37.977528 
-57.097198 36.984299 47.357029 8.642578 12.500001 -45.896324 29.822811 -7.874106 -5.629282 -29.365234 9.599609 0.978191 51.063168 8.107644 2.471410 -60.722656 -9.462890 -7.482074 2.000000 -2.000000 0.000000 -86.494141 13.789063 5.029296 -48.475899 -2.018347 -1.951768 14.754325 62.139053 13.757730 -2.000000 2.000000 0.000000 90.468750 -11.162108 3.933657 52.482361 1.642116 -2.042788 -11.417569 -58.194702 5.658308 -68.846863 2.050948 7.906188 86.115059 -1.230643 -5.171144 -20.530302 21.514196 -4.745580 -0.888935 -4.573091 -17.021616 65.927094 1.912150 4.360948 12.429690 -38.420250 39.089436 
-56.972450 36.917305 46.814663 8.261719 12.001954 -45.876873 29.822811 -7.874106 -5.629282 -29.365234 9.599609 0.978191 51.063168 8.107644 2.471410 -60.517578 -9.316405 -7.373048 2.000000 -2.000000 0.000000 -86.494141 13.906252 5.527344 -48.469818 -1.899002 -2.086195 15.297998 62.196712 13.750113 -2.000000 2.000000 0.000000 89.824219 -11.523437 4.822269 52.482361 1.642116 -2.042788 -11.313648 -58.144630 5.171980 -69.747368 2.430617 7.683449 87.324730 -1.152203 -5.206997 -20.533823 21.009157 -4.074244 -2.323339 -4.643697 -16.094849 68.187836 1.894578 3.848336 16.052546 -37.247158 41.906353 
-56.864372 36.827049 46.292423 7.714844 11.669922 -46.062477 29.822811 -7.874106 -5.629282 -29.365234 9.599609 0.978191 51.063168 8.107644 2.471410 -60.146481 -9.189452 -7.296482 2.000000 -2.000000 0.000000 -86.679688 14.072266 5.634766 -48.469818 -1.899002 -2.086195 15.258342 62.029942 13.690722 -2.000000 2.000000 0.000000 89.423828 -11.367187 5.398468 52.482361 1.642116 -2.042788 -10.779322 -58.245941 4.722770 -70.671722 2.812689 7.238846 88.407661 -1.269430 -5.413169 -20.258778 21.263563 -4.342405 -3.564189 -4.491191 -16.085827 70.097183 1.533115 4.487464 19.072227 -37.182125 43.011948 
-56.771572 36.671062 45.790211 7.343750 11.142578 -46.023502 29.822811 -7.874106 -5.629282 -29.365234 9.599609 0.978191 51.063168 8.107644 2.471410 -59.775391 -9.062499 -7.373048 2.000000 -2.000000 0.000000 -86.865234 14.023438 5.549242 -48.469818 -1.899002 -2.086195 15.258342 62.029942 13.690722 -2.000000 2.000000 0.000000 89.580078 -11.347656 5.917970 52.482361 1.642116 -2.042788 -10.271419 -57.419926 4.414457 -71.406319 3.193678 6.840680 89.480225 -1.132204 -5.391895 -20.121605 20.918266 -4.241161 -4.647371 -4.343800 -15.694291 72.016319 1.376917 4.648792 21.745388 -36.150265 44.567516 
-56.699707 36.470524 45.300617 6.777344 10.820313 -45.994259 29.822811 -7.874106 -5.629282 -29.365234 9.599609 0.978191 51.063168 8.107644 2.471410 -59.599609 -9.072265 -7.218338 2.000000 -2.000000 0.000000 -86.865234 13.984375 5.529706 -48.475075 -1.899082 -1.919630 15.537075 62.366814 14.139236 -2.000000 2.000000 0.000000 89.414063 -11.210937 5.937500 52.482361 1.642116 -2.042788 -9.795682 -56.282013 4.581889 -72.126831 3.369064 6.715927 90.324692 -1.064879 -5.251516 -19.650162 20.650282 -4.356804 -5.524189 -4.175365 -15.515635 73.598930 1.259287 4.654256 24.545258 -35.277954 46.143440 
-56.635601 36.199051 44.829533 6.250000 10.283202 -45.974815 29.822811 -7.874106 -5.629282 -29.365234 9.599609 0.978191 51.063168 8.107644 2.471410 -59.228519 -8.925781 -7.304688 2.000000 -2.000000 0.000000 -86.884766 13.945312 5.361329 -48.299831 -2.027527 -1.941453 15.444810 62.765923 14.182201 -2.000000 2.000000 0.000000 89.589844 -11.181641 6.083984 52.482361 1.642116 -2.042788 -9.185419 -55.563129 4.756235 -72.843597 3.739285 6.434032 91.376808 -0.811057 -5.386294 -19.503036 20.771864 -4.310034 -6.103221 -3.896207 -14.635508 75.191681 1.240249 4.701878 27.473972 -34.574043 48.153500 
-56.580639 35.909760 44.387596 5.869141 9.941406 -45.908203 29.822811 -7.874106 -5.629282 -29.365234 9.599609 0.978191 51.063168 8.107644 2.471410 -58.847660 -8.789062 -7.382812 2.000000 -2.000000 0.000000 -86.884766 13.945312 5.361329 -48.299831 -2.027527 -1.941453 15.115465 63.200211 13.946200 -2.000000 2.000000 0.000000 89.511719 -10.996094 6.492278 52.658142 1.642116 -2.042788 -8.823717 -55.423103 4.390983 -73.423424 4.159798 5.807959 92.098602 -0.928588 -5.309538 -19.178907 20.723459 -4.425074 -6.577438 -3.345224 -14.817602 76.412056 1.152312 4.718728 29.081760 -34.240711 48.715347 
-56.539207 35.570705 44.064167 5.341797 9.443359 -46.043316 29.822811 -7.874106 -5.629282 -29.365234 9.599609 0.978191 51.063168 8.107644 2.471410 -58.505856 -8.828124 -7.257359 2.000000 -2.000000 0.000000 -86.875000 13.896485 5.363675 -48.299831 -2.027527 -1.941453 15.295860 63.936123 14.437140 -2.000000 2.000000 0.000000 89.521484 -11.240234 7.263722 52.658142 1.642116 -2.042788 -8.988191 -55.600384 4.681489 -73.957825 4.325073 5.687328 92.965706 -0.821037 -5.300454 -19.028383 20.612461 -4.529110 -6.911684 -3.015742 -14.620318 77.834274 1.035271 4.544160 31.174196 -33.314369 50.049622 
